<?xml version="1.0" encoding="utf-8"?>
<!-- Generator: Adobe Illustrator 16.0.0, SVG Export Plug-In . SVG Version: 6.00 Build 0)  -->
<!DOCTYPE svg PUBLIC "-//W3C//DTD SVG 1.1//EN" "http://www.w3.org/Graphics/SVG/1.1/DTD/svg11.dtd">
<svg version="1.1" id="Livello_1" xmlns="http://www.w3.org/2000/svg" xmlns:xlink="http://www.w3.org/1999/xlink" x="0px" y="0px"
	 width="223.868px" height="125.242px" viewBox="0 0 223.868 125.242" enable-background="new 0 0 223.868 125.242"
	 xml:space="preserve">
<g>
	<g>
		<path fill="#FFFFFF" d="M24.994,106.477c-1.56,0-3.011-0.68-4.354-2.035c-1.343-1.354-2.513-3.174-3.509-5.459
			c-0.997-2.28-1.777-4.928-2.339-7.938c-0.564-3.008-0.845-6.168-0.845-9.479c0-2.844,0.417-6.642,1.254-11.392
			c0.835-4.75,1.253-7.125,1.253-7.125s0.633-2.371,1.899-7.116c1.267-4.745,2.537-8.549,3.811-11.416
			c1.273-2.866,2.657-5.542,4.149-8.032c1.494-2.49,3.06-4.66,4.7-6.51c1.64-1.849,3.353-3.304,5.139-4.361
			c1.786-1.057,3.602-1.586,5.446-1.586c1.342,0,2.451,0.257,3.325,0.769c0.873,0.513,1.56,1.189,2.061,2.029
			c0.499,0.841,0.85,1.793,1.053,2.857s0.305,2.148,0.305,3.251c0,2.741-0.324,5.532-0.972,8.375
			c-0.648,2.842-1.522,5.698-2.622,8.57c-1.102,2.871-2.375,5.75-3.821,8.637c-1.448,2.886-2.955,5.75-4.521,8.59
			c-1.567,2.845-3.142,5.643-4.725,8.397s-3.042,5.449-4.38,8.078c-0.146,0.293-0.298,0.674-0.458,1.142
			c-0.161,0.469-0.313,0.973-0.458,1.514c-0.146,0.541-0.291,1.119-0.437,1.729c-0.146,0.615-0.262,1.216-0.349,1.8v0.614
			c0,0.761,0.079,1.498,0.239,2.216c0.16,0.715,0.356,1.358,0.589,1.93c0.232,0.567,0.48,1.022,0.742,1.358
			c0.262,0.337,0.508,0.505,0.741,0.505c0.564,0,1.21-0.117,1.937-0.353c0.728-0.234,1.5-0.547,2.316-0.943
			c0.816-0.395,1.655-0.846,2.516-1.358c0.861-0.51,1.692-1.029,2.494-1.558c1.871-1.229,3.829-2.645,5.877-4.254l3.84,9.166
			c-2.658,1.767-5.284,3.338-7.882,4.713c-1.135,0.58-2.307,1.152-3.516,1.72c-1.209,0.563-2.425,1.065-3.65,1.508
			c-1.225,0.441-2.418,0.793-3.582,1.055C27.098,106.344,26.009,106.477,24.994,106.477z M25.036,72.003
			c1.309-2.337,2.697-4.969,4.166-7.894c1.469-2.922,2.857-5.934,4.166-9.032c1.31-3.099,2.443-6.191,3.403-9.275
			c0.959-3.084,1.57-5.956,1.833-8.618c0-0.848-0.021-1.571-0.062-2.17c-0.042-0.6-0.172-0.899-0.392-0.899
			c-0.796,0-1.656,0.551-2.576,1.651c-0.92,1.102-1.84,2.592-2.76,4.472c-0.92,1.879-2.02,4.936-3.297,9.17
			c-1.278,4.235-1.917,6.353-1.917,6.353c0,0.002-0.39,1.965-1.17,5.894C25.649,65.584,25.185,69.034,25.036,72.003z"/>
		<path fill="#FFFFFF" d="M65.172,97.213c-1.043,0.957-2.341,1.979-3.892,3.064c-1.551,1.088-3.225,2.088-5.022,3.002
			c-1.798,0.912-3.631,1.674-5.501,2.281c-1.87,0.608-3.646,0.916-5.327,0.916c-1.507,0-2.776-0.211-3.805-0.634
			c-1.029-0.418-1.862-1.008-2.5-1.762s-1.095-1.674-1.37-2.763c-0.276-1.086-0.413-2.28-0.413-3.586
			c0-1.825,0.203-3.957,0.608-6.391c0.836-5.039,1.373-7.869,1.612-8.49c0.395-1.237,1.185-3.979,2.37-8.229
			c1.101-3.461,1.78-5.715,2.039-6.763c0.143-0.729,0.541-1.391,1.197-1.978c0.598-0.526,1.274-0.96,2.028-1.297
			c0.756-0.336,1.539-0.585,2.351-0.746c0.812-0.162,1.545-0.241,2.201-0.241c1.196,0,2.007,0.225,2.435,0.674
			c0.426,0.449,0.64,1.052,0.64,1.806c0,0.637-0.149,1.538-0.446,2.702c-0.298,1.166-0.638,2.492-1.018,3.982
			c-0.381,1.489-0.945,3.405-1.692,5.745c-0.748,2.343-1.258,4.341-1.532,5.99c-0.273,1.651-0.619,3.293-1.036,4.922
			c-0.417,1.631-0.625,3.113-0.625,4.445c0,1.305,0.145,2.34,0.435,3.108s0.884,1.15,1.783,1.15c1.043,0,2.202-0.361,3.479-1.088
			c1.275-0.723,2.565-1.6,3.87-2.629s2.58-2.094,3.827-3.197c1.247-1.102,2.349-2.045,3.305-2.826L65.172,97.213L65.172,97.213z"/>
		<path fill="#FFFFFF" d="M57.073,97.387c0-1.914,0.115-4.125,0.348-6.633c0.232-2.506,0.521-5.26,0.87-8.262
			c0.348-3,0.739-5.703,1.174-8.109s0.854-4.464,1.261-6.176c0.319-1.333,0.935-2.449,1.849-3.348
			c0.913-0.899,2.152-1.35,3.718-1.35c1.565,0,2.652,0.479,3.261,1.436c0.608,0.957,0.913,2.232,0.913,3.828
			c0,0.436-0.043,1.021-0.13,1.762c-0.087,0.736-0.196,1.55-0.327,2.434c-0.13,0.885-0.269,1.799-0.413,2.741
			c-0.145,0.942-0.283,2.015-0.414,3.215c-0.13,1.205-0.238,2.104-0.326,2.697c-0.087,0.596-0.13,0.994-0.13,1.194h0.869
			c0.174-0.315,0.449-0.832,0.826-1.543c0.377-0.709,0.812-1.731,1.305-3.065c0.492-1.334,1.021-2.517,1.586-3.542
			c0.565-1.031,1.094-2.016,1.588-2.959c0.492-0.941,0.941-1.773,1.348-2.499c0.406-0.724,0.71-1.261,0.914-1.61
			c0.928-1.564,1.985-2.637,3.174-3.218c1.188-0.58,2.507-0.87,3.957-0.87c1.45,0,2.603,0.609,3.458,1.826
			c0.855,1.219,1.283,2.9,1.283,5.045c0,0.319-0.065,0.854-0.196,1.607c-0.13,0.755-0.298,1.654-0.5,2.697
			c-0.203,1.043-0.428,2.394-0.674,4.045c-0.246,1.652-0.471,3.131-0.674,4.435c-0.203,1.305-0.37,2.596-0.5,3.871
			c-0.131,1.274-0.196,2.448-0.196,3.521c0,1.799,0.224,3.275,0.674,4.437c0.449,1.161,1.152,1.739,2.109,1.739
			c0.347,0,0.84-0.131,1.478-0.391c0.957-0.35,1.566-0.652,1.827-0.914c1.274-0.986,1.941-1.463,2-1.436
			c0.087,0.029,1.059-0.551,2.914-1.74c2.319-1.477,5.088-3.287,8.306-5.434l-0.044,9.74l-2.174,1.651
			c-0.174,0.146-1.537,0.897-4.088,2.263c-3.682,1.973-5.986,3.159-6.914,3.563c-2.262,1.014-3.668,1.596-4.219,1.739
			c-1.45,0.463-2.972,0.697-4.566,0.697c-1.595,0-2.936-1.152-4.022-3.459c-1.087-2.305-1.63-5.674-1.63-10.111
			c0-1.737,0.115-3.612,0.347-5.631c0.232-2.014,0.523-4.182,0.87-6.5h-0.695l-11.394,22.613c-0.609,1.217-1.261,2.029-1.957,2.434
			c-0.725,0.437-1.565,0.654-2.522,0.654c-1.189,0-2.146-0.254-2.87-0.764c-0.725-0.506-1.283-1.188-1.674-2.041
			c-0.391-0.857-0.652-1.828-0.783-2.914C57.138,99.67,57.073,98.545,57.073,97.387z"/>
		<path fill="#FFFFFF" d="M108.155,82.502c1.043-1.357,2.188-2.848,3.436-4.471c1.246-1.623,2.47-3.17,3.674-4.649
			c1.202-1.475,2.413-3.009,3.631-4.603c1.218-1.592,2.117-2.596,2.696-3.01c0.898-0.649,2-1.203,3.305-1.66
			c1.303-0.457,2.753-0.686,4.348-0.686c0.811,0,1.588,0.192,2.326,0.576c0.739,0.382,1.385,0.93,1.936,1.637
			c0.552,0.709,0.986,1.565,1.306,2.568c0.317,1.004,0.478,2.123,0.478,3.363c0,1.209-0.398,2.647-1.195,4.315
			c-0.799,1.668-1.631,3.122-2.502,4.358c-0.869,1.242-1.812,2.48-2.826,3.721c-1.016,1.238-1.957,2.484-2.826,3.738
			c-0.869,1.256-1.595,2.502-2.174,3.74c-0.581,1.24-0.871,2.479-0.871,3.719c0,1.061,0.253,1.822,0.762,2.279
			c0.508,0.457,1.297,0.686,2.369,0.686c0.581,0,1.211-0.199,1.893-0.598c0.682-0.396,1.385-0.92,2.11-1.57
			c0.724-0.648,1.455-1.371,2.196-2.168c0.736-0.797,1.447-1.609,2.13-2.436c0.681-0.826,1.326-1.615,1.937-2.367
			c0.608-0.754,1.158-1.396,1.651-1.926l2.608,10.844c-0.898,1.219-2.035,2.35-3.413,3.391c-1.378,1.043-2.869,1.951-4.479,2.721
			c-1.609,0.775-3.277,1.377-5,1.812c-1.725,0.432-3.386,0.649-4.979,0.649c-2.087,0-3.789-0.237-5.109-0.713
			c-1.319-0.471-2.354-1.098-3.108-1.883c-0.756-0.783-1.27-1.668-1.545-2.654c-0.274-0.985-0.412-2.006-0.412-3.061
			c0-0.678,0.078-1.512,0.24-2.5c0.157-0.988,0.461-2.102,0.911-3.342c0.449-1.238,1.08-2.604,1.894-4.092
			c0.81-1.49,1.869-3.092,3.173-4.803c0.522-0.529,1.001-1.011,1.435-1.438c0.436-0.429,0.812-0.812,1.131-1.15
			c0.318-0.338,0.564-0.655,0.739-0.95c0.175-0.298,0.261-0.605,0.261-0.933c0-0.619-0.109-1.119-0.326-1.504
			c-0.217-0.384-0.528-0.576-0.936-0.576c-0.494,0-1.129,0.326-1.913,0.976c-0.813,0.68-1.667,1.813-2.565,3.41l-12.786,22.334
			c-0.695,1.055-1.392,1.797-2.087,2.229c-0.696,0.432-1.508,0.65-2.436,0.65c-1.247,0-2.232-0.254-2.957-0.759
			c-0.725-0.504-1.276-1.188-1.653-2.047s-0.616-1.854-0.717-2.985c-0.102-1.134-0.152-2.343-0.152-3.621
			c0-1.683,0.058-3.904,0.173-6.674c0.116-2.771,0.29-5.812,0.523-9.127c0.231-3.314,0.543-6.785,0.935-10.408
			c0.391-3.625,0.862-7.146,1.413-10.563c0.215-1.173,0.479-2.612,0.792-4.315c0.312-1.703,0.737-3.518,1.272-5.442
			c0.536-1.925,1.098-3.948,1.689-6.068c0.589-2.121,1.312-4.171,2.168-6.152c0.856-1.98,1.821-3.866,2.895-5.659
			c1.074-1.792,2.278-3.362,3.612-4.707c1.335-1.344,2.801-2.406,4.396-3.188c1.597-0.78,3.338-1.171,5.225-1.171
			c1.479,0,2.695,0.239,3.65,0.715c0.957,0.476,1.717,1.14,2.285,1.991c0.563,0.852,0.963,1.869,1.194,3.052
			c0.231,1.184,0.349,2.468,0.349,3.852c0,2.481-0.312,5.152-0.935,8.012c-0.625,2.86-1.414,5.728-2.37,8.602
			c-0.958,2.875-2.001,5.669-3.13,8.384c-1.132,2.713-2.22,5.165-3.263,7.353c-1.043,2.189-1.965,4.036-2.762,5.539
			c-0.795,1.502-1.326,2.488-1.585,2.954l-5.175,7.792L108.155,82.502z M116.665,33.332c-0.94,0-1.75,0.29-2.426,0.867
			c-0.677,0.579-1.316,1.402-1.919,2.472c-0.604,1.07-1.206,2.371-1.809,3.903c-0.604,1.531-1.287,3.237-2.052,5.116
			c-0.413,1.687-0.839,3.425-1.275,5.213c-0.436,1.789-0.788,3.558-1.053,5.309c-0.267,1.751-0.527,3.474-0.784,5.168
			c-0.257,1.694-0.497,3.281-0.72,4.763c-0.436,3.653-0.783,7.246-1.044,10.779c0.637-1.941,1.337-4.052,2.099-6.33
			c0.761-2.281,1.515-4.531,2.263-6.752c0.747-2.22,1.451-4.31,2.11-6.267c0.659-1.956,1.208-3.616,1.648-4.979
			c0.204-0.637,0.497-1.434,0.877-2.391c0.381-0.957,0.793-1.985,1.229-3.088c0.44-1.101,0.881-2.246,1.319-3.435
			c0.438-1.188,0.844-2.333,1.209-3.435s0.666-2.131,0.902-3.088c0.233-0.956,0.35-1.768,0.35-2.435
			C117.59,33.796,117.284,33.332,116.665,33.332z"/>
		<path fill="#FFFFFF" d="M194.024,17.834c0.102-1.923,0.416-3.467,0.949-4.636c0.531-1.168,1.207-2.083,2.023-2.742
			c0.812-0.659,1.729-1.103,2.744-1.329c1.014-0.225,2.021-0.339,3.02-0.339c0.898,0,1.699,0.114,2.398,0.339
			c0.697,0.227,1.288,0.632,1.771,1.216c0.481,0.585,0.849,1.367,1.098,2.346c0.25,0.98,0.375,2.225,0.375,3.731
			c0,10.439-0.55,20.145-1.647,29.113c-1.098,8.97-2.646,17.12-4.644,24.449c-1.993,7.33-4.394,13.83-7.188,19.502
			c-2.795,5.675-5.883,10.433-9.26,14.275c-3.379,3.844-7.015,6.764-10.908,8.762c-3.893,1.998-7.922,2.996-12.08,2.996
			c-4.992,0-9.17-1.141-12.531-3.42s-6.051-5.361-8.062-9.242c-2.014-3.881-3.445-8.375-4.295-13.481
			c-0.848-5.104-1.271-10.488-1.271-16.142c0-4.482,0.45-9.768,1.353-15.848c0.902-6.081,1.567-10.554,1.991-13.421
			c0.427-2.867,1.136-6.214,2.13-10.041c0.993-3.826,2.014-7.375,3.062-10.645c0.631-2.19,1.269-3.89,1.916-5.098
			c0.648-1.208,1.287-2.105,1.914-2.69c0.634-0.585,1.264-0.944,1.894-1.076c0.629-0.133,1.276-0.199,1.938-0.199
			c1.262,0,2.381,0.063,3.359,0.191c0.979,0.127,1.799,0.373,2.465,0.737c0.662,0.364,1.158,0.882,1.49,1.555
			c0.332,0.673,0.055,0.114,0.514,0.968l0.312,0.812c0.146,0.438,0.469,1.324,0.541,1.833c0.073,0.509,0.292,1.583,0.125,2.634
			c-0.229,1.45-0.983,3.325-1.58,5.792c-0.599,2.466-1.452,5.237-2.562,8.312c-1.11,3.076-1.996,6.467-2.653,10.171
			c-0.658,3.705-1.401,7.295-2.233,10.771c-0.834,3.477-1.574,7.026-2.223,10.649c-0.65,3.623-0.975,7.067-0.975,10.334
			c0,3.377,0.25,6.523,0.748,9.435c0.498,2.907,1.34,5.434,2.521,7.573c1.18,2.142,2.721,3.82,4.616,5.041
			c1.897,1.222,4.243,1.83,7.04,1.83c2.162,0,4.219-0.67,6.164-2.008c1.947-1.336,3.779-3.223,5.494-5.652
			c1.711-2.432,3.326-5.342,4.842-8.733c1.515-3.394,2.902-7.121,4.168-11.194c1.264-4.068,2.404-8.412,3.42-13.03
			c1.014-4.617,1.904-9.384,2.67-14.303c0.768-4.918,1.404-9.921,1.923-15.009C193.418,27.839,193.792,22.809,194.024,17.834z"/>
	</g>
	<path fill="#FFFFFF" d="M59.198,36.825c-4.028-1.053-8.17,1.358-9.224,5.348c-0.262,0.978-0.187,3.047,0.942,5.647
		c1.694,3.876,2.259,9.033,1.996,12.759c1.58-3.387,4.667-7.605,8.018-10.087c2.258-1.694,3.388-3.463,3.653-4.442
		C65.637,42.059,63.226,37.917,59.198,36.825z M57.381,47.451c-1.978,0-3.582-1.604-3.582-3.582c0-1.979,1.604-3.582,3.582-3.582
		c1.979,0,3.582,1.604,3.582,3.582C60.963,45.847,59.359,47.451,57.381,47.451z"/>
</g>
</svg>
